<svg xmlns="http://www.w3.org/2000/svg" width="24" height="24" viewBox="0 0 24 24" fill="none"><desc>文字格式256</desc><path d="M0 3C0 1.34315 1.34315 0 3 0H21C22.6569 0 24 1.34315 24 3V21C24 22.6569 22.6569 24 21 24H3C1.34315 24 0 22.6569 0 21V3Z" fill="#3B64FC"/><path d="M0 18.375H24V21C24 22.6569 22.6569 24 21 24H3C1.34315 24 0 22.6569 0 21V18.375Z" fill="#1050E7"/><path d="M21 1.14742e-07C22.6569 1.87166e-07 24 1.34315 24 3L24 21.0968C24 22.7002 22.7002 24 21.0968 24C19.5936 24 18.375 22.7814 18.375 21.2782L18.375 0L21 1.14742e-07Z" fill="#5589FF"/><path d="M18.375 21.2782C18.375 22.7814 19.5936 24 21.0968 24C22.7002 24 24 22.7002 24 21.0968C24 19.5936 22.7814 18.375 21.2782 18.375H18.375V21.2782Z" fill="#476DFF"/><path d="M5.75921 13.4063L3.5625 4.59375H5.32534L6.89431 11.5926L8.35714 4.94932H9.9414L11.5599 11.6474L12.9608 4.59375H14.7188L12.7213 13.4063H10.5142L9.18988 8.06607L7.94836 13.4063H5.75921Z" fill="white"/></svg>